<svg width="28" height="28" viewBox="0 0 28 28" fill="none" xmlns="http://www.w3.org/2000/svg">
<circle cx="14" cy="14" r="14" fill="#002466" fill-opacity="0.05"/>
<path d="M12.6756 14L10.2416 11.5124C10.0848 11.3465 9.99807 11.1243 10 10.8936C10.002 10.663 10.0925 10.4424 10.2521 10.2793C10.4117 10.1162 10.6275 10.0237 10.8532 10.0217C11.0789 10.0196 11.2963 10.1083 11.4586 10.2685L13.8927 12.7562L16.3267 10.2685C16.4061 10.1845 16.5011 10.1175 16.6061 10.0714C16.7111 10.0253 16.824 10.001 16.9383 10C17.0526 9.99902 17.1659 10.0213 17.2717 10.0655C17.3775 10.1097 17.4736 10.1751 17.5544 10.2576C17.6352 10.3402 17.6991 10.4384 17.7424 10.5466C17.7856 10.6547 17.8074 10.7705 17.8064 10.8873C17.8054 11.0041 17.7817 11.1195 17.7366 11.2268C17.6915 11.3342 17.6259 11.4312 17.5437 11.5124L15.1097 14L17.5437 16.4876C17.6259 16.5688 17.6915 16.6658 17.7366 16.7732C17.7817 16.8805 17.8054 16.9959 17.8064 17.1127C17.8074 17.2295 17.7856 17.3453 17.7424 17.4534C17.6991 17.5616 17.6352 17.6598 17.5544 17.7424C17.4736 17.825 17.3775 17.8903 17.2717 17.9345C17.1659 17.9787 17.0526 18.001 16.9383 18C16.824 17.999 16.7111 17.9747 16.6061 17.9286C16.5011 17.8825 16.4061 17.8155 16.3267 17.7315L13.8927 15.2438L11.4586 17.7315C11.2963 17.8917 11.0789 17.9804 10.8532 17.9783C10.6275 17.9763 10.4117 17.8838 10.2521 17.7207C10.0925 17.5576 10.002 17.337 10 17.1064C9.99807 16.8757 10.0848 16.6535 10.2416 16.4876L12.6756 14Z" fill="#002466"/>
</svg>
