<svg width="140" height="32" viewBox="0 0 140 32" fill="none" xmlns="http://www.w3.org/2000/svg">
<path d="M46.4145 8.75047H42.5855L42.5651 6.40204H45.6691C46.2273 6.40204 46.6731 6.34078 47.0067 6.21825C47.3402 6.08891 47.5819 5.90172 47.7316 5.65667C47.8882 5.41161 47.9665 5.10529 47.9665 4.73771C47.9665 4.31568 47.8882 3.97532 47.7316 3.71665C47.5751 3.45799 47.3266 3.27079 46.9862 3.15507C46.6527 3.03254 46.2205 2.97128 45.6895 2.97128H43.9333V15.0708H40.3494V0.204212H45.6895C46.6085 0.204212 47.4287 0.2893 48.1503 0.459476C48.8718 0.622846 49.4844 0.874707 49.9882 1.21506C50.4987 1.55541 50.8867 1.98426 51.1522 2.50159C51.4176 3.01212 51.5504 3.61455 51.5504 4.30887C51.5504 4.9147 51.421 5.48309 51.1624 6.01404C50.9037 6.54499 50.4715 6.97723 49.8656 7.31078C49.2666 7.63752 48.4464 7.8077 47.4049 7.82131L46.4145 8.75047ZM46.2715 15.0708H41.7176L42.9429 12.314H46.2715C46.7616 12.314 47.153 12.2391 47.4457 12.0893C47.7452 11.9328 47.9597 11.7286 48.089 11.4767C48.2251 11.218 48.2932 10.9321 48.2932 10.619C48.2932 10.2378 48.2285 9.90767 48.0992 9.62858C47.9767 9.34949 47.7793 9.13507 47.507 8.98532C47.2347 8.82875 46.8705 8.75047 46.4145 8.75047H43.4023L43.4228 6.40204H47.0271L47.8644 7.34141C48.8582 7.30057 49.6444 7.44011 50.223 7.76005C50.8084 8.07998 51.227 8.50202 51.4789 9.02616C51.7308 9.5503 51.8567 10.0983 51.8567 10.6701C51.8567 11.6435 51.6457 12.4569 51.2236 13.1104C50.8084 13.7639 50.1856 14.254 49.3551 14.5807C48.5246 14.9075 47.4968 15.0708 46.2715 15.0708Z" fill="#002466"/>
<path d="M61.8932 0.204212H65.4771V9.91448C65.4771 11.0717 65.2355 12.0519 64.7522 12.8551C64.2689 13.6516 63.5916 14.254 62.7203 14.6624C61.849 15.0708 60.8245 15.275 59.6469 15.275C58.4829 15.275 57.4584 15.0708 56.5735 14.6624C55.6954 14.254 55.0079 13.6516 54.511 12.8551C54.0209 12.0519 53.7758 11.0717 53.7758 9.91448V0.204212H57.3699V9.91448C57.3699 10.5271 57.4584 11.0274 57.6354 11.4154C57.8124 11.7966 58.0711 12.0757 58.4114 12.2527C58.7518 12.4297 59.1636 12.5182 59.6469 12.5182C60.137 12.5182 60.5488 12.4297 60.8824 12.2527C61.2159 12.0757 61.4678 11.7966 61.6379 11.4154C61.8081 11.0274 61.8932 10.5271 61.8932 9.91448V0.204212Z" fill="#002466"/>
<path d="M75.3707 11.1193C75.3707 10.8879 75.3367 10.6803 75.2686 10.4965C75.2005 10.3059 75.0746 10.1289 74.8908 9.96553C74.707 9.80216 74.4415 9.63879 74.0944 9.47542C73.754 9.30525 73.3048 9.12827 72.7466 8.94447C72.0931 8.72665 71.4634 8.4816 70.8576 8.20931C70.2518 7.93022 69.7106 7.60689 69.2341 7.23931C68.7576 6.86492 68.3799 6.42927 68.1008 5.93235C67.8217 5.42863 67.6821 4.84322 67.6821 4.17613C67.6821 3.53627 67.8251 2.96107 68.111 2.45054C68.3969 1.9332 68.7951 1.49415 69.3056 1.13338C69.8229 0.765794 70.4288 0.486705 71.1231 0.296107C71.8174 0.0987023 72.5764 0 73.4001 0C74.4892 0 75.449 0.190598 76.2794 0.571793C77.1167 0.946181 77.7702 1.48054 78.2399 2.17485C78.7164 2.86237 78.9546 3.67581 78.9546 4.61519H75.3911C75.3911 4.2408 75.3128 3.91066 75.1563 3.62476C75.0065 3.33886 74.7785 3.11423 74.4722 2.95086C74.1659 2.78749 73.7812 2.70581 73.3184 2.70581C72.8691 2.70581 72.4913 2.77388 72.185 2.91002C71.8787 3.04616 71.6472 3.22995 71.4907 3.46139C71.3341 3.68602 71.2558 3.93448 71.2558 4.20676C71.2558 4.4314 71.3171 4.63561 71.4396 4.8194C71.569 4.99638 71.7493 5.16315 71.9808 5.31972C72.219 5.47628 72.5049 5.62603 72.8385 5.76898C73.1788 5.91193 73.56 6.05148 73.9821 6.18762C74.7717 6.43948 75.4728 6.72197 76.0854 7.0351C76.7049 7.34141 77.2256 7.69198 77.6477 8.08679C78.0765 8.47479 78.3998 8.91725 78.6177 9.41416C78.8423 9.91108 78.9546 10.4727 78.9546 11.0989C78.9546 11.766 78.8253 12.3582 78.5666 12.8756C78.3079 13.3929 77.937 13.8319 77.4537 14.1927C76.9704 14.5467 76.3918 14.8156 75.7179 14.9994C75.044 15.1831 74.2918 15.275 73.4613 15.275C72.6989 15.275 71.9467 15.1797 71.2048 14.9891C70.4696 14.7917 69.8025 14.4922 69.2035 14.0906C68.6045 13.6822 68.1246 13.1614 67.7638 12.5284C67.4098 11.8885 67.2329 11.1295 67.2329 10.2514H70.827C70.827 10.6871 70.8848 11.0547 71.0006 11.3542C71.1163 11.6537 71.2865 11.8953 71.5111 12.0791C71.7357 12.2561 72.0114 12.3854 72.3382 12.4671C72.6649 12.542 73.0393 12.5794 73.4613 12.5794C73.9174 12.5794 74.285 12.5148 74.5641 12.3854C74.8432 12.2493 75.0474 12.0723 75.1767 11.8545C75.306 11.6299 75.3707 11.3848 75.3707 11.1193Z" fill="#002466"/>
<path d="M84.5904 0.204212V15.0708H81.0167V0.204212H84.5904Z" fill="#002466"/>
<path d="M99.5075 0.204212V15.0708H95.9338L90.6754 5.82004V15.0708H87.0915V0.204212H90.6754L95.9338 9.455V0.204212H99.5075Z" fill="#002466"/>
<path d="M111.984 12.314V15.0708H104.061V12.314H111.984ZM105.337 0.204212V15.0708H101.753V0.204212H105.337ZM110.963 6.10593V8.77089H104.061V6.10593H110.963ZM112.015 0.204212V2.97128H104.061V0.204212H112.015Z" fill="#002466"/>
<path d="M121.092 11.1193C121.092 10.8879 121.058 10.6803 120.99 10.4965C120.922 10.3059 120.796 10.1289 120.612 9.96553C120.428 9.80216 120.163 9.63879 119.815 9.47542C119.475 9.30525 119.026 9.12827 118.468 8.94447C117.814 8.72665 117.184 8.4816 116.579 8.20931C115.973 7.93022 115.432 7.60689 114.955 7.23931C114.479 6.86492 114.101 6.42927 113.822 5.93235C113.543 5.42863 113.403 4.84322 113.403 4.17613C113.403 3.53627 113.546 2.96107 113.832 2.45054C114.118 1.9332 114.516 1.49415 115.027 1.13338C115.544 0.765794 116.15 0.486705 116.844 0.296107C117.538 0.0987023 118.297 0 119.121 0C120.21 0 121.17 0.190598 122 0.571793C122.838 0.946181 123.491 1.48054 123.961 2.17485C124.437 2.86237 124.676 3.67581 124.676 4.61519H121.112C121.112 4.2408 121.034 3.91066 120.877 3.62476C120.728 3.33886 120.5 3.11423 120.193 2.95086C119.887 2.78749 119.502 2.70581 119.039 2.70581C118.59 2.70581 118.212 2.77388 117.906 2.91002C117.6 3.04616 117.368 3.22995 117.212 3.46139C117.055 3.68602 116.977 3.93448 116.977 4.20676C116.977 4.4314 117.038 4.63561 117.161 4.8194C117.29 4.99638 117.47 5.16315 117.702 5.31972C117.94 5.47628 118.226 5.62603 118.56 5.76898C118.9 5.91193 119.281 6.05148 119.703 6.18762C120.493 6.43948 121.194 6.72197 121.806 7.0351C122.426 7.34141 122.947 7.69198 123.369 8.08679C123.798 8.47479 124.121 8.91725 124.339 9.41416C124.563 9.91108 124.676 10.4727 124.676 11.0989C124.676 11.766 124.546 12.3582 124.288 12.8756C124.029 13.3929 123.658 13.8319 123.175 14.1927C122.691 14.5467 122.113 14.8156 121.439 14.9994C120.765 15.1831 120.013 15.275 119.182 15.275C118.42 15.275 117.668 15.1797 116.926 14.9891C116.191 14.7917 115.524 14.4922 114.925 14.0906C114.326 13.6822 113.846 13.1614 113.485 12.5284C113.131 11.8885 112.954 11.1295 112.954 10.2514H116.548C116.548 10.6871 116.606 11.0547 116.722 11.3542C116.837 11.6537 117.008 11.8953 117.232 12.0791C117.457 12.2561 117.732 12.3854 118.059 12.4671C118.386 12.542 118.76 12.5794 119.182 12.5794C119.638 12.5794 120.006 12.5148 120.285 12.3854C120.564 12.2493 120.768 12.0723 120.898 11.8545C121.027 11.6299 121.092 11.3848 121.092 11.1193Z" fill="#002466"/>
<path d="M134.161 11.1193C134.161 10.8879 134.127 10.6803 134.059 10.4965C133.991 10.3059 133.865 10.1289 133.681 9.96553C133.497 9.80216 133.232 9.63879 132.884 9.47542C132.544 9.30525 132.095 9.12827 131.537 8.94447C130.883 8.72665 130.254 8.4816 129.648 8.20931C129.042 7.93022 128.501 7.60689 128.024 7.23931C127.548 6.86492 127.17 6.42927 126.891 5.93235C126.612 5.42863 126.472 4.84322 126.472 4.17613C126.472 3.53627 126.615 2.96107 126.901 2.45054C127.187 1.9332 127.585 1.49415 128.096 1.13338C128.613 0.765794 129.219 0.486705 129.913 0.296107C130.608 0.0987023 131.367 0 132.19 0C133.279 0 134.239 0.190598 135.07 0.571793C135.907 0.946181 136.56 1.48054 137.03 2.17485C137.506 2.86237 137.745 3.67581 137.745 4.61519H134.181C134.181 4.2408 134.103 3.91066 133.946 3.62476C133.797 3.33886 133.569 3.11423 133.262 2.95086C132.956 2.78749 132.571 2.70581 132.108 2.70581C131.659 2.70581 131.281 2.77388 130.975 2.91002C130.669 3.04616 130.437 3.22995 130.281 3.46139C130.124 3.68602 130.046 3.93448 130.046 4.20676C130.046 4.4314 130.107 4.63561 130.23 4.8194C130.359 4.99638 130.539 5.16315 130.771 5.31972C131.009 5.47628 131.295 5.62603 131.629 5.76898C131.969 5.91193 132.35 6.05148 132.772 6.18762C133.562 6.43948 134.263 6.72197 134.876 7.0351C135.495 7.34141 136.016 7.69198 136.438 8.08679C136.867 8.47479 137.19 8.91725 137.408 9.41416C137.632 9.91108 137.745 10.4727 137.745 11.0989C137.745 11.766 137.615 12.3582 137.357 12.8756C137.098 13.3929 136.727 13.8319 136.244 14.1927C135.76 14.5467 135.182 14.8156 134.508 14.9994C133.834 15.1831 133.082 15.275 132.251 15.275C131.489 15.275 130.737 15.1797 129.995 14.9891C129.26 14.7917 128.593 14.4922 127.994 14.0906C127.395 13.6822 126.915 13.1614 126.554 12.5284C126.2 11.8885 126.023 11.1295 126.023 10.2514H129.617C129.617 10.6871 129.675 11.0547 129.791 11.3542C129.906 11.6537 130.077 11.8953 130.301 12.0791C130.526 12.2561 130.802 12.3854 131.128 12.4671C131.455 12.542 131.829 12.5794 132.251 12.5794C132.708 12.5794 133.075 12.5148 133.354 12.3854C133.633 12.2493 133.837 12.0723 133.967 11.8545C134.096 11.6299 134.161 11.3848 134.161 11.1193Z" fill="#002466"/>
<path d="M46.2817 26.956H42.5855V24.1889H46.2817C46.7854 24.1889 47.1939 24.1038 47.507 23.9336C47.8201 23.7635 48.0481 23.5286 48.1911 23.2291C48.3409 22.9228 48.4157 22.579 48.4157 22.1978C48.4157 21.7894 48.3409 21.4116 48.1911 21.0645C48.0481 20.7173 47.8201 20.4382 47.507 20.2272C47.1939 20.0094 46.7854 19.9005 46.2817 19.9005H43.9333V32H40.3494V17.1334H46.2817C47.473 17.1334 48.4974 17.3512 49.3551 17.7869C50.2196 18.2225 50.8833 18.8215 51.3462 19.5839C51.809 20.3395 52.0405 21.204 52.0405 22.1774C52.0405 23.1372 51.809 23.9745 51.3462 24.6892C50.8833 25.404 50.2196 25.9621 49.3551 26.3638C48.4974 26.7586 47.473 26.956 46.2817 26.956Z" fill="#002466"/>
<path d="M64.8175 29.2431V32H57.3025V29.2431H64.8175ZM58.5789 17.1334V32H54.9949V17.1334H58.5789Z" fill="#002466"/>
<path d="M73.8575 20.2578L70.2327 32H66.3833L71.846 17.1334H74.2863L73.8575 20.2578ZM76.8594 32L73.2244 20.2578L72.7547 17.1334H75.2257L80.719 32H76.8594ZM76.7165 26.4557V29.2227H69.0891V26.4557H76.7165Z" fill="#002466"/>
<path d="M95.2523 17.1334V32H91.6786L86.4201 22.7492V32H82.8362V17.1334H86.4201L91.6786 26.3842V17.1334H95.2523Z" fill="#002466"/>
<path d="M110.96 17.1334V32H107.386L102.128 22.7492V32H98.5437V17.1334H102.128L107.386 26.3842V17.1334H110.96Z" fill="#002466"/>
<path d="M124.482 29.2431V32H116.559V29.2431H124.482ZM117.835 17.1334V32H114.251V17.1334H117.835ZM123.461 23.0351V25.7001H116.559V23.0351H123.461ZM124.513 17.1334V19.9005H116.559V17.1334H124.513Z" fill="#002466"/>
<path d="M126.977 17.1334H132.828C133.971 17.1334 134.965 17.3036 135.809 17.6439C136.653 17.9843 137.303 18.488 137.76 19.1551C138.222 19.8222 138.454 20.6458 138.454 21.626C138.454 22.4769 138.321 23.1883 138.056 23.7601C137.79 24.3319 137.419 24.8049 136.943 25.1793C136.473 25.5469 135.925 25.8498 135.299 26.0881L134.125 26.7518H129.213L129.193 23.9847H132.828C133.284 23.9847 133.662 23.903 133.961 23.7396C134.261 23.5763 134.485 23.3448 134.635 23.0453C134.792 22.739 134.87 22.3748 134.87 21.9528C134.87 21.5239 134.792 21.1564 134.635 20.85C134.479 20.5437 134.247 20.3089 133.941 20.1455C133.641 19.9821 133.27 19.9005 132.828 19.9005H130.561V32H126.977V17.1334ZM135.115 32L131.827 25.4244L135.626 25.404L138.954 31.8468V32H135.115Z" fill="#002466"/>
<path opacity="0.25" d="M29.5914 32H24.0861C23.721 32 23.371 31.8532 23.1128 31.5918C22.8547 31.3305 22.7097 30.976 22.7097 30.6064V19.4581C22.7097 19.0885 22.8547 18.734 23.1128 18.4727C23.371 18.2113 23.721 18.0645 24.0861 18.0645H29.5914C29.9565 18.0645 30.3065 18.2113 30.5647 18.4727C30.8228 18.734 30.9678 19.0885 30.9678 19.4581V30.6064C30.9678 30.976 30.8228 31.3305 30.5647 31.5918C30.3065 31.8532 29.9565 32 29.5914 32Z" fill="#002466"/>
<path d="M18.2366 32H12.7312C12.3662 32 12.0161 31.8468 11.758 31.574C11.4999 31.3012 11.3549 30.9312 11.3549 30.5455V1.45455C11.3549 1.06878 11.4999 0.698807 11.758 0.426026C12.0161 0.153246 12.3662 0 12.7312 0H18.2366C18.6016 0 18.9517 0.153246 19.2098 0.426026C19.4679 0.698807 19.6129 1.06878 19.6129 1.45455V30.5455C19.6129 30.9312 19.4679 31.3012 19.2098 31.574C18.9517 31.8468 18.6016 32 18.2366 32Z" fill="#002466"/>
<path opacity="0.5" d="M6.88172 32H1.37634C1.01131 32 0.661235 31.8446 0.403121 31.5681C0.145006 31.2915 0 30.9165 0 30.5253V12.8295C0 12.4384 0.145006 12.0633 0.403121 11.7868C0.661235 11.5102 1.01131 11.3548 1.37634 11.3548H6.88172C7.24675 11.3548 7.59683 11.5102 7.85494 11.7868C8.11306 12.0633 8.25806 12.4384 8.25806 12.8295V30.5253C8.25806 30.9165 8.11306 31.2915 7.85494 31.5681C7.59683 31.8446 7.24675 32 6.88172 32Z" fill="#002466"/>
</svg>
