<svg width="140" height="32" viewBox="0 0 140 32" fill="none" xmlns="http://www.w3.org/2000/svg">
<path d="M46.4143 8.75047H42.5854L42.5649 6.40204H45.669C46.2271 6.40204 46.673 6.34078 47.0065 6.21825C47.3401 6.08891 47.5817 5.90172 47.7315 5.65667C47.8881 5.41161 47.9663 5.10529 47.9663 4.73771C47.9663 4.31568 47.8881 3.97532 47.7315 3.71665C47.5749 3.45799 47.3265 3.27079 46.9861 3.15507C46.6526 3.03254 46.2203 2.97128 45.6894 2.97128H43.9332V15.0708H40.3492V0.204212H45.6894C46.6083 0.204212 47.4286 0.2893 48.1501 0.459476C48.8717 0.622846 49.4843 0.874707 49.988 1.21506C50.4986 1.55541 50.8866 1.98426 51.152 2.50159C51.4175 3.01212 51.5503 3.61455 51.5503 4.30887C51.5503 4.9147 51.4209 5.48309 51.1623 6.01404C50.9036 6.54499 50.4713 6.97723 49.8655 7.31078C49.2665 7.63752 48.4462 7.8077 47.4048 7.82131L46.4143 8.75047ZM46.2714 15.0708H41.7175L42.9427 12.314H46.2714C46.7615 12.314 47.1529 12.2391 47.4456 12.0893C47.7451 11.9328 47.9595 11.7286 48.0889 11.4767C48.225 11.218 48.2931 10.9321 48.2931 10.619C48.2931 10.2378 48.2284 9.90767 48.0991 9.62858C47.9766 9.34949 47.7791 9.13507 47.5069 8.98532C47.2346 8.82875 46.8704 8.75047 46.4143 8.75047H43.4022L43.4226 6.40204H47.027L47.8642 7.34141C48.8581 7.30057 49.6443 7.44011 50.2229 7.76005C50.8083 8.07998 51.2269 8.50202 51.4788 9.02616C51.7306 9.5503 51.8566 10.0983 51.8566 10.6701C51.8566 11.6435 51.6456 12.4569 51.2235 13.1104C50.8083 13.7639 50.1854 14.254 49.355 14.5807C48.5245 14.9075 47.4967 15.0708 46.2714 15.0708Z" fill="white"/>
<path d="M61.8931 0.204212H65.477V9.91448C65.477 11.0717 65.2354 12.0519 64.7521 12.8551C64.2688 13.6516 63.5915 14.254 62.7201 14.6624C61.8488 15.0708 60.8244 15.275 59.6468 15.275C58.4828 15.275 57.4583 15.0708 56.5734 14.6624C55.6953 14.254 55.0078 13.6516 54.5108 12.8551C54.0207 12.0519 53.7757 11.0717 53.7757 9.91448V0.204212H57.3698V9.91448C57.3698 10.5271 57.4583 11.0274 57.6353 11.4154C57.8123 11.7966 58.0709 12.0757 58.4113 12.2527C58.7516 12.4297 59.1635 12.5182 59.6468 12.5182C60.1369 12.5182 60.5487 12.4297 60.8822 12.2527C61.2158 12.0757 61.4677 11.7966 61.6378 11.4154C61.808 11.0274 61.8931 10.5271 61.8931 9.91448V0.204212Z" fill="white"/>
<path d="M75.3706 11.1193C75.3706 10.8879 75.3365 10.6803 75.2685 10.4965C75.2004 10.3059 75.0745 10.1289 74.8907 9.96553C74.7069 9.80216 74.4414 9.63879 74.0943 9.47542C73.7539 9.30525 73.3046 9.12827 72.7465 8.94447C72.093 8.72665 71.4633 8.48159 70.8575 8.20931C70.2517 7.93022 69.7105 7.60689 69.234 7.23931C68.7575 6.86492 68.3797 6.42927 68.1006 5.93235C67.8215 5.42863 67.682 4.84322 67.682 4.17613C67.682 3.53627 67.825 2.96107 68.1108 2.45054C68.3967 1.9332 68.795 1.49415 69.3055 1.13338C69.8228 0.765794 70.4287 0.486705 71.123 0.296107C71.8173 0.0987023 72.5763 0 73.3999 0C74.4891 0 75.4489 0.190598 76.2793 0.571793C77.1166 0.946181 77.7701 1.48053 78.2398 2.17485C78.7162 2.86237 78.9545 3.67581 78.9545 4.61519H75.391C75.391 4.2408 75.3127 3.91065 75.1562 3.62476C75.0064 3.33886 74.7784 3.11423 74.472 2.95086C74.1657 2.78749 73.7811 2.70581 73.3182 2.70581C72.869 2.70581 72.4912 2.77388 72.1849 2.91002C71.8786 3.04616 71.6471 3.22995 71.4906 3.46139C71.334 3.68602 71.2557 3.93448 71.2557 4.20676C71.2557 4.43139 71.317 4.63561 71.4395 4.8194C71.5688 4.99638 71.7492 5.16315 71.9807 5.31972C72.2189 5.47628 72.5048 5.62603 72.8384 5.76898C73.1787 5.91193 73.5599 6.05148 73.9819 6.18762C74.7716 6.43948 75.4727 6.72197 76.0853 7.0351C76.7048 7.34141 77.2255 7.69198 77.6475 8.08679C78.0764 8.47479 78.3997 8.91725 78.6175 9.41416C78.8422 9.91108 78.9545 10.4727 78.9545 11.0989C78.9545 11.766 78.8252 12.3582 78.5665 12.8756C78.3078 13.3929 77.9368 13.8319 77.4535 14.1927C76.9702 14.5467 76.3916 14.8156 75.7177 14.9994C75.0438 15.1831 74.2917 15.275 73.4612 15.275C72.6988 15.275 71.9466 15.1797 71.2047 14.9891C70.4695 14.7917 69.8024 14.4922 69.2034 14.0906C68.6044 13.6822 68.1245 13.1614 67.7637 12.5284C67.4097 11.8885 67.2327 11.1295 67.2327 10.2514H70.8269C70.8269 10.6871 70.8847 11.0547 71.0004 11.3542C71.1162 11.6537 71.2863 11.8953 71.511 12.0791C71.7356 12.2561 72.0113 12.3854 72.338 12.4671C72.6648 12.542 73.0392 12.5794 73.4612 12.5794C73.9173 12.5794 74.2849 12.5148 74.5639 12.3854C74.843 12.2493 75.0472 12.0723 75.1766 11.8545C75.3059 11.6299 75.3706 11.3848 75.3706 11.1193Z" fill="white"/>
<path d="M84.5903 0.204212V15.0708H81.0165V0.204212H84.5903Z" fill="white"/>
<path d="M99.5074 0.204212V15.0708H95.9337L90.6753 5.82004V15.0708H87.0914V0.204212H90.6753L95.9337 9.455V0.204212H99.5074Z" fill="white"/>
<path d="M111.984 12.314V15.0708H104.061V12.314H111.984ZM105.337 0.204212V15.0708H101.753V0.204212H105.337ZM110.963 6.10593V8.77089H104.061V6.10593H110.963ZM112.015 0.204212V2.97128H104.061V0.204212H112.015Z" fill="white"/>
<path d="M121.092 11.1193C121.092 10.8879 121.058 10.6803 120.99 10.4965C120.921 10.3059 120.796 10.1289 120.612 9.96553C120.428 9.80216 120.162 9.63879 119.815 9.47542C119.475 9.30525 119.026 9.12827 118.468 8.94447C117.814 8.72665 117.184 8.48159 116.579 8.20931C115.973 7.93022 115.432 7.60689 114.955 7.23931C114.479 6.86492 114.101 6.42927 113.822 5.93235C113.543 5.42863 113.403 4.84322 113.403 4.17613C113.403 3.53627 113.546 2.96107 113.832 2.45054C114.118 1.9332 114.516 1.49415 115.027 1.13338C115.544 0.765794 116.15 0.486705 116.844 0.296107C117.538 0.0987023 118.297 0 119.121 0C120.21 0 121.17 0.190598 122 0.571793C122.838 0.946181 123.491 1.48053 123.961 2.17485C124.437 2.86237 124.676 3.67581 124.676 4.61519H121.112C121.112 4.2408 121.034 3.91065 120.877 3.62476C120.727 3.33886 120.499 3.11423 120.193 2.95086C119.887 2.78749 119.502 2.70581 119.039 2.70581C118.59 2.70581 118.212 2.77388 117.906 2.91002C117.6 3.04616 117.368 3.22995 117.212 3.46139C117.055 3.68602 116.977 3.93448 116.977 4.20676C116.977 4.43139 117.038 4.63561 117.161 4.8194C117.29 4.99638 117.47 5.16315 117.702 5.31972C117.94 5.47628 118.226 5.62603 118.559 5.76898C118.9 5.91193 119.281 6.05148 119.703 6.18762C120.493 6.43948 121.194 6.72197 121.806 7.0351C122.426 7.34141 122.947 7.69198 123.369 8.08679C123.797 8.47479 124.121 8.91725 124.339 9.41416C124.563 9.91108 124.676 10.4727 124.676 11.0989C124.676 11.766 124.546 12.3582 124.288 12.8756C124.029 13.3929 123.658 13.8319 123.175 14.1927C122.691 14.5467 122.113 14.8156 121.439 14.9994C120.765 15.1831 120.013 15.275 119.182 15.275C118.42 15.275 117.668 15.1797 116.926 14.9891C116.191 14.7917 115.523 14.4922 114.924 14.0906C114.325 13.6822 113.846 13.1614 113.485 12.5284C113.131 11.8885 112.954 11.1295 112.954 10.2514H116.548C116.548 10.6871 116.606 11.0547 116.721 11.3542C116.837 11.6537 117.007 11.8953 117.232 12.0791C117.457 12.2561 117.732 12.3854 118.059 12.4671C118.386 12.542 118.76 12.5794 119.182 12.5794C119.638 12.5794 120.006 12.5148 120.285 12.3854C120.564 12.2493 120.768 12.0723 120.898 11.8545C121.027 11.6299 121.092 11.3848 121.092 11.1193Z" fill="white"/>
<path d="M134.161 11.1193C134.161 10.8879 134.127 10.6803 134.059 10.4965C133.991 10.3059 133.865 10.1289 133.681 9.96553C133.497 9.80216 133.232 9.63879 132.884 9.47542C132.544 9.30525 132.095 9.12827 131.537 8.94447C130.883 8.72665 130.253 8.48159 129.648 8.20931C129.042 7.93022 128.501 7.60689 128.024 7.23931C127.548 6.86492 127.17 6.42927 126.891 5.93235C126.612 5.42863 126.472 4.84322 126.472 4.17613C126.472 3.53627 126.615 2.96107 126.901 2.45054C127.187 1.9332 127.585 1.49415 128.096 1.13338C128.613 0.765794 129.219 0.486705 129.913 0.296107C130.607 0.0987023 131.366 0 132.19 0C133.279 0 134.239 0.190598 135.069 0.571793C135.907 0.946181 136.56 1.48053 137.03 2.17485C137.506 2.86237 137.745 3.67581 137.745 4.61519H134.181C134.181 4.2408 134.103 3.91065 133.946 3.62476C133.797 3.33886 133.568 3.11423 133.262 2.95086C132.956 2.78749 132.571 2.70581 132.108 2.70581C131.659 2.70581 131.281 2.77388 130.975 2.91002C130.669 3.04616 130.437 3.22995 130.281 3.46139C130.124 3.68602 130.046 3.93448 130.046 4.20676C130.046 4.43139 130.107 4.63561 130.23 4.8194C130.359 4.99638 130.539 5.16315 130.771 5.31972C131.009 5.47628 131.295 5.62603 131.628 5.76898C131.969 5.91193 132.35 6.05148 132.772 6.18762C133.562 6.43948 134.263 6.72197 134.875 7.0351C135.495 7.34141 136.016 7.69198 136.438 8.08679C136.866 8.47479 137.19 8.91725 137.408 9.41416C137.632 9.91108 137.745 10.4727 137.745 11.0989C137.745 11.766 137.615 12.3582 137.357 12.8756C137.098 13.3929 136.727 13.8319 136.244 14.1927C135.76 14.5467 135.182 14.8156 134.508 14.9994C133.834 15.1831 133.082 15.275 132.251 15.275C131.489 15.275 130.737 15.1797 129.995 14.9891C129.26 14.7917 128.593 14.4922 127.993 14.0906C127.394 13.6822 126.915 13.1614 126.554 12.5284C126.2 11.8885 126.023 11.1295 126.023 10.2514H129.617C129.617 10.6871 129.675 11.0547 129.791 11.3542C129.906 11.6537 130.076 11.8953 130.301 12.0791C130.526 12.2561 130.801 12.3854 131.128 12.4671C131.455 12.542 131.829 12.5794 132.251 12.5794C132.707 12.5794 133.075 12.5148 133.354 12.3854C133.633 12.2493 133.837 12.0723 133.967 11.8545C134.096 11.6299 134.161 11.3848 134.161 11.1193Z" fill="white"/>
<path d="M46.2816 26.956H42.5854V24.1889H46.2816C46.7853 24.1889 47.1937 24.1038 47.5069 23.9336C47.82 23.7635 48.048 23.5286 48.191 23.2291C48.3407 22.9228 48.4156 22.579 48.4156 22.1978C48.4156 21.7894 48.3407 21.4116 48.191 21.0645C48.048 20.7173 47.82 20.4382 47.5069 20.2272C47.1937 20.0094 46.7853 19.9005 46.2816 19.9005H43.9332V32H40.3492V17.1334H46.2816C47.4728 17.1334 48.4973 17.3512 49.355 17.7869C50.2195 18.2225 50.8832 18.8215 51.346 19.5839C51.8089 20.3395 52.0404 21.204 52.0404 22.1774C52.0404 23.1372 51.8089 23.9745 51.346 24.6892C50.8832 25.404 50.2195 25.9621 49.355 26.3638C48.4973 26.7586 47.4728 26.956 46.2816 26.956Z" fill="white"/>
<path d="M64.8174 29.2431V32H57.3024V29.2431H64.8174ZM58.5787 17.1334V32H54.9948V17.1334H58.5787Z" fill="white"/>
<path d="M73.8574 20.2578L70.2326 32H66.3832L71.8459 17.1334H74.2862L73.8574 20.2578ZM76.8593 32L73.2243 20.2578L72.7546 17.1334H75.2256L80.7189 32H76.8593ZM76.7163 26.4557V29.2227H69.089V26.4557H76.7163Z" fill="white"/>
<path d="M95.2521 17.1334V32H91.6784L86.42 22.7492V32H82.8361V17.1334H86.42L91.6784 26.3842V17.1334H95.2521Z" fill="white"/>
<path d="M110.96 17.1334V32H107.386L102.127 22.7492V32H98.5435V17.1334H102.127L107.386 26.3842V17.1334H110.96Z" fill="white"/>
<path d="M124.482 29.2431V32H116.559V29.2431H124.482ZM117.835 17.1334V32H114.251V17.1334H117.835ZM123.461 23.0351V25.7001H116.559V23.0351H123.461ZM124.513 17.1334V19.9005H116.559V17.1334H124.513Z" fill="white"/>
<path d="M126.977 17.1334H132.828C133.971 17.1334 134.965 17.3036 135.809 17.6439C136.653 17.9843 137.303 18.488 137.759 19.1551C138.222 19.8222 138.454 20.6458 138.454 21.626C138.454 22.4769 138.321 23.1883 138.056 23.7601C137.79 24.3319 137.419 24.8049 136.943 25.1793C136.473 25.5469 135.925 25.8498 135.299 26.0881L134.124 26.7518H129.213L129.193 23.9847H132.828C133.284 23.9847 133.662 23.903 133.961 23.7396C134.261 23.5763 134.485 23.3448 134.635 23.0453C134.792 22.739 134.87 22.3748 134.87 21.9528C134.87 21.5239 134.792 21.1564 134.635 20.85C134.478 20.5437 134.247 20.3089 133.941 20.1455C133.641 19.9821 133.27 19.9005 132.828 19.9005H130.561V32H126.977V17.1334ZM135.115 32L131.827 25.4244L135.625 25.404L138.954 31.8468V32H135.115Z" fill="white"/>
<path opacity="0.25" d="M29.5914 32H24.0861C23.721 32 23.371 31.8532 23.1128 31.5918C22.8547 31.3305 22.7097 30.976 22.7097 30.6064V19.4581C22.7097 19.0885 22.8547 18.734 23.1128 18.4727C23.371 18.2113 23.721 18.0645 24.0861 18.0645H29.5914C29.9565 18.0645 30.3065 18.2113 30.5647 18.4727C30.8228 18.734 30.9678 19.0885 30.9678 19.4581V30.6064C30.9678 30.976 30.8228 31.3305 30.5647 31.5918C30.3065 31.8532 29.9565 32 29.5914 32Z" fill="white"/>
<path d="M18.2366 32H12.7312C12.3662 32 12.0161 31.8468 11.758 31.574C11.4999 31.3012 11.3549 30.9312 11.3549 30.5455V1.45455C11.3549 1.06878 11.4999 0.698807 11.758 0.426026C12.0161 0.153246 12.3662 0 12.7312 0H18.2366C18.6016 0 18.9517 0.153246 19.2098 0.426026C19.4679 0.698807 19.6129 1.06878 19.6129 1.45455V30.5455C19.6129 30.9312 19.4679 31.3012 19.2098 31.574C18.9517 31.8468 18.6016 32 18.2366 32Z" fill="white"/>
<path opacity="0.5" d="M6.88172 32H1.37634C1.01131 32 0.661235 31.8446 0.403121 31.5681C0.145006 31.2915 0 30.9164 0 30.5253V12.8295C0 12.4384 0.145006 12.0633 0.403121 11.7867C0.661235 11.5102 1.01131 11.3548 1.37634 11.3548H6.88172C7.24675 11.3548 7.59683 11.5102 7.85494 11.7867C8.11306 12.0633 8.25806 12.4384 8.25806 12.8295V30.5253C8.25806 30.9164 8.11306 31.2915 7.85494 31.5681C7.59683 31.8446 7.24675 32 6.88172 32Z" fill="white"/>
</svg>
